<?xml version="1.0" encoding="iso-8859-1"?>
<!-- Generator: Adobe Illustrator 19.0.0, SVG Export Plug-In . SVG Version: 6.00 Build 0)  -->
<svg version="1.1" id="Layer_1" xmlns="http://www.w3.org/2000/svg" xmlns:xlink="http://www.w3.org/1999/xlink" x="0px" y="0px"
	 viewBox="0 0 511.999 511.999" style="enable-background:new 0 0 511.999 511.999;" xml:space="preserve">
<rect x="55.933" y="187.045" style="fill:#707487;" width="400.395" height="208.465"/>
<g>
	
		<rect x="199.934" y="187.772" transform="matrix(-1 0.0019 -0.0019 -1 440.4558 583.301)" style="fill:#AFB9D2;" width="40.034" height="208.175"/>
	
		<rect x="127.874" y="187.903" transform="matrix(-1 0.0019 -0.0019 -1 296.3359 583.6997)" style="fill:#AFB9D2;" width="40.034" height="208.175"/>
	
		<rect x="271.995" y="187.64" transform="matrix(-1 0.0019 -0.0019 -1 584.5777 582.9002)" style="fill:#AFB9D2;" width="40.034" height="208.175"/>
	
		<rect x="344.055" y="187.498" transform="matrix(-1 0.0019 -0.0019 -1 728.6975 582.4795)" style="fill:#AFB9D2;" width="40.034" height="208.175"/>
	
		<rect x="416.115" y="187.358" transform="matrix(-1 0.0019 -0.0019 -1 872.8173 582.0607)" style="fill:#AFB9D2;" width="40.034" height="208.175"/>
	
		<rect x="55.81" y="188.045" transform="matrix(-1 0.0019 -0.0019 -1 152.2081 584.1205)" style="fill:#AFB9D2;" width="40.034" height="208.175"/>
	<polyline style="fill:#AFB9D2;" points="479.903,155.261 479.963,187.288 31.588,188.13 31.528,156.104 	"/>
	<polyline style="fill:#AFB9D2;" points="32.039,428.331 31.979,396.304 480.354,395.461 480.414,427.488 	"/>
</g>
<g>
	<polyline style="fill:#C7CFE2;" points="456.392,427.533 504.434,427.443 504.494,459.47 8.079,460.402 8.019,428.376 
		376.327,427.684 	"/>
	<polyline style="fill:#C7CFE2;" points="375.812,155.456 7.508,156.149 255.52,51.595 503.923,155.216 455.88,155.306 	"/>
</g>
<path d="M424.368,420.087c-0.005,0-0.01,0-0.015,0l-16.013,0.03c-4.145,0.008-7.5,3.375-7.492,7.52
	c0.008,4.14,3.367,7.492,7.506,7.492c0.005,0,0.01,0,0.015,0l16.013-0.03c4.145-0.008,7.5-3.375,7.492-7.52
	C431.865,423.438,428.507,420.087,424.368,420.087z"/>
<path d="M511.94,427.429c-0.004-1.991-0.798-3.898-2.209-5.303c-1.407-1.401-3.313-2.189-5.298-2.189c-0.004,0-0.009,0-0.014,0
	l-16.514,0.031l-0.046-24.521c-0.004-1.991-0.798-3.898-2.209-5.303c-1.407-1.401-3.313-2.189-5.297-2.189c-0.005,0-0.009,0-0.014,0
	l-16.514,0.031l-0.363-193.162l16.514-0.031c4.145-0.008,7.5-3.375,7.492-7.52l-0.046-24.521l16.514-0.031
	c3.575-0.007,6.65-2.534,7.347-6.04c0.698-3.506-1.172-7.018-4.472-8.394L258.409,44.667c-1.859-0.775-3.95-0.772-5.806,0.011
	L4.591,149.232c-3.294,1.389-5.151,4.908-4.441,8.411c0.711,3.499,3.787,6.012,7.356,6.012c0.004,0,0.009,0,0.014,0l16.514-0.031
	l0.046,24.521c0.004,1.991,0.798,3.898,2.209,5.303c1.407,1.401,3.313,2.189,5.297,2.189c0.005,0,0.009,0,0.014,0l16.514-0.031
	l0.362,193.162l-16.514,0.031c-1.991,0.004-3.899,0.798-5.303,2.209c-1.404,1.411-2.192,3.321-2.189,5.312l0.046,24.521
	l-16.514,0.031c-4.145,0.008-7.5,3.375-7.492,7.52l0.06,32.027c0.004,1.991,0.798,3.898,2.209,5.303
	c1.407,1.401,3.313,2.189,5.298,2.189c0.004,0,0.009,0,0.014,0l496.415-0.934c4.145-0.008,7.5-3.375,7.492-7.52L511.94,427.429z
	 M367.263,388.168l-15.531,0.029l-0.362-193.161l25.021-0.047l0.362,193.162L367.263,388.168z M280.972,388.33l-1.299,0.002
	l-0.363-193.162l25.021-0.047l0.362,193.162L280.972,388.33z M160.21,195.394l0.363,193.162l-25.021,0.047l-0.363-193.162
	L160.21,195.394z M175.585,388.528l-0.363-193.162l17.014-0.032l0.363,193.162L175.585,388.528z M231.163,388.423l-23.551,0.044
	l-0.363-193.162l25.021-0.047l0.363,193.162L231.163,388.423z M247.645,388.392l-0.363-193.162l17.014-0.032l0.363,193.162
	L247.645,388.392z M319.705,388.257l-0.362-193.162l17.014-0.032l0.362,193.162L319.705,388.257z M391.766,388.122l-0.362-193.162
	l17.014-0.032l0.363,193.162L391.766,388.122z M448.814,388.014l-25.021,0.047L423.429,194.9l25.021-0.047L448.814,388.014z
	 M39.048,163.596l336.778-0.634c4.145-0.008,7.5-3.375,7.492-7.52c-0.008-4.141-3.367-7.492-7.506-7.492c-0.005,0-0.01,0-0.015,0
	l-330.995,0.623l210.733-88.838l211.065,88.045l-10.733,0.02c-4.145,0.008-7.5,3.375-7.492,7.52c0.008,4.14,3.367,7.492,7.506,7.492
	c0.005,0,0.01,0,0.015,0l16.515-0.031l0.032,17.014l-16.495,0.031c-0.001,0-0.003,0-0.004,0c-0.005,0-0.01,0-0.015,0l-40.034,0.075
	c-0.001,0-0.003,0-0.004,0l-32.004,0.06c-0.001,0-0.003,0-0.004,0c-0.004,0-0.009,0-0.014,0l-40.034,0.075c-0.001,0-0.003,0-0.004,0
	l-32.004,0.06c-0.002,0-0.003,0-0.005,0c-0.004,0-0.009,0-0.014,0l-40.034,0.075c-0.001,0-0.003,0-0.004,0l-232.69,0.437
	L39.048,163.596z M88.512,388.691l-25.021,0.047l-0.362-193.162l25.021-0.047L88.512,388.691z M103.162,195.502l17.014-0.032
	l0.363,193.162l-17.014,0.032L103.162,195.502z M15.572,452.882l-0.032-17.014l360.802-0.679c4.145-0.008,7.5-3.375,7.492-7.52
	c-0.008-4.141-3.367-7.492-7.506-7.492c-0.005,0-0.01,0-0.015,0L39.531,420.81l-0.032-17.014l232.68-0.437l0,0
	c0.005,0,0.01,0,0.015,0l40.034-0.075h0.001l60.606-0.114l11.454-0.021c0.001,0,0.002,0,0.002,0l88.572-0.166l0.032,17.014
	l-16.516,0.031c-4.145,0.008-7.5,3.375-7.492,7.52c0.008,4.14,3.367,7.492,7.506,7.492c0.005,0,0.01,0,0.015,0l24.004-0.045
	c0.001,0,0.002,0,0.004,0c0.005,0,0.01,0,0.015,0c0.001,0,0.003,0,0.004,0l16.51-0.031l0.032,17.014L15.572,452.882z"/>
<path d="M407.843,162.902c0.005,0,0.01,0,0.015,0l16.01-0.03c4.145-0.008,7.5-3.375,7.492-7.52c-0.008-4.14-3.367-7.492-7.506-7.492
	c-0.005,0-0.01,0-0.015,0l-16.01,0.03c-4.145,0.008-7.5,3.375-7.492,7.52C400.346,159.55,403.705,162.902,407.843,162.902z"/>
<path d="M279.646,100.091c-0.005,0-0.01,0-0.015,0c-4.145,0.008-7.5,3.375-7.492,7.52c0.008,4.411-1.701,8.561-4.815,11.686
	c-3.113,3.125-7.257,4.85-11.668,4.858c-0.011,0-0.021,0-0.032,0c-4.399,0-8.537-1.709-11.655-4.815
	c-3.125-3.114-4.85-7.257-4.858-11.668c-0.008-4.411,1.701-8.561,4.815-11.686c3.113-3.126,7.257-4.851,11.668-4.859
	c4.145-0.008,7.5-3.375,7.492-7.52c-0.008-4.14-3.367-7.492-7.506-7.492c-0.005,0-0.01,0-0.015,0
	c-17.384,0.033-31.5,14.202-31.467,31.586c0.016,8.421,3.31,16.332,9.276,22.275c5.952,5.929,13.851,9.193,22.249,9.192
	c0.02,0,0.041,0,0.061,0c8.421-0.016,16.332-3.31,22.275-9.276c5.943-5.965,9.208-13.889,9.193-22.31
	C287.143,103.441,283.784,100.091,279.646,100.091z"/>
<g>
</g>
<g>
</g>
<g>
</g>
<g>
</g>
<g>
</g>
<g>
</g>
<g>
</g>
<g>
</g>
<g>
</g>
<g>
</g>
<g>
</g>
<g>
</g>
<g>
</g>
<g>
</g>
<g>
</g>
</svg>
